<svg width="90" height="30" viewBox="0 0 90 30" fill="none" xmlns="http://www.w3.org/2000/svg">
<rect width="90" height="30" fill="#1C62CD"/>
<path d="M28.256 19L25.172 10.996H23.036L19.94 19H21.884L22.388 17.644H25.82L26.312 19H28.256ZM25.352 16.144H22.856L24.104 12.7L25.352 16.144ZM37.0471 19L33.6511 14.752L36.8311 10.996H34.7311L31.8991 14.572V10.996H30.1951V19H31.8991V16.54L32.5231 15.796L34.9471 19H37.0471ZM45.24 20.476H46.944V17.5H46.224V10.996H44.508V17.5H40.728V10.996H39.024V19H45.24V20.476ZM50.786 19L54.602 13.636V19H56.306V10.996H54.554L50.846 16.168V10.996H49.142V19H50.786ZM60.6922 19L62.2762 16.156H63.5122V19H65.2162V10.996H61.4722C59.8042 10.996 58.7842 12.088 58.7842 13.576C58.7842 14.992 59.6722 15.748 60.5362 15.952L58.7362 19H60.6922ZM61.7242 14.656C61.0402 14.656 60.5242 14.248 60.5242 13.576C60.5242 12.904 61.0402 12.496 61.7242 12.496H63.5122V14.656H61.7242Z" fill="white"/>
</svg>
