<svg width="60" height="40" viewBox="0 0 60 40" fill="none" xmlns="http://www.w3.org/2000/svg">
<path d="M0 10C0 4.47715 4.47715 0 10 0H60V40H0V10Z" fill="#1C62CD"/>
<path d="M45 7.83795L44.0713 10.3311H41.66L37.3175 25.2901H20.7687L15 11.5777H36.015L35.31 14.0709H18.76L22.4313 22.797H35.4662L39.7563 7.83795H45ZM25.625 26.5367C24.59 26.5367 23.75 27.3744 23.75 28.4066C23.75 29.44 24.59 30.2765 25.625 30.2765C26.66 30.2765 27.5 29.44 27.5 28.4066C27.5 27.3744 26.66 26.5367 25.625 26.5367ZM34.25 17.8106L31.875 26.5367C30.84 26.5367 30 27.3732 30 28.4066C30 29.44 30.84 30.2765 31.875 30.2765C32.91 30.2765 33.75 29.44 33.75 28.4066C33.75 27.3744 32.91 26.5367 31.875 26.5367L34.25 17.8106Z" fill="white"/>
</svg>
