<svg width="63" height="25" viewBox="0 0 63 25" fill="none" xmlns="http://www.w3.org/2000/svg">
<rect width="63" height="25" fill="#1C62CD"/>
<path d="M15.416 14.6738H16.4766C16.5273 15.1309 16.75 15.498 17.1445 15.7754C17.543 16.0527 18.0449 16.1914 18.6504 16.1914C19.2207 16.1914 19.6914 16.0566 20.0625 15.7871C20.4375 15.5137 20.625 15.1699 20.625 14.7559C20.625 14.4004 20.4941 14.1074 20.2324 13.877C19.9746 13.6465 19.5605 13.457 18.9902 13.3086L17.9062 13.0273C17.125 12.8281 16.5547 12.5508 16.1953 12.1953C15.8359 11.8359 15.6562 11.3691 15.6562 10.7949C15.6562 10.0918 15.9336 9.51758 16.4883 9.07227C17.0469 8.62695 17.7656 8.4043 18.6445 8.4043C19.4844 8.4043 20.1797 8.63086 20.7305 9.08398C21.2812 9.5332 21.5684 10.1113 21.5918 10.8184H20.5371C20.4902 10.3652 20.2949 10.0078 19.9512 9.74609C19.6074 9.48438 19.1602 9.35352 18.6094 9.35352C18.0625 9.35352 17.6152 9.48242 17.2676 9.74023C16.9238 9.99805 16.752 10.334 16.752 10.748C16.752 11.0684 16.877 11.332 17.127 11.5391C17.3809 11.7422 17.7949 11.918 18.3691 12.0664L19.2539 12.3008C20.1289 12.5195 20.7578 12.8105 21.1406 13.1738C21.5234 13.5371 21.7148 14.0215 21.7148 14.627C21.7148 15.4004 21.4297 16.0137 20.8594 16.4668C20.293 16.916 19.5234 17.1406 18.5508 17.1406C17.6523 17.1406 16.918 16.916 16.3477 16.4668C15.7773 16.0176 15.4668 15.4199 15.416 14.6738ZM29.2814 17L28.4318 14.5801H25.0685L24.2189 17H23.1115L26.2287 8.54492H27.2716L30.3888 17H29.2814ZM26.7326 9.82812L25.3791 13.6836H28.1213L26.7677 9.82812H26.7326ZM37.3284 16.0508V17H32.1956V8.54492H33.2503V16.0508H37.3284ZM44.5669 16.0508V17H39.3286V8.54492H44.5669V9.49414H40.3833V12.207H44.3501V13.1445H40.3833V16.0508H44.5669Z" fill="white"/>
</svg>
