<svg width="260" height="91" viewBox="0 0 260 91" fill="none" xmlns="http://www.w3.org/2000/svg">
<g opacity="0.9" filter="url(#filter0_d)">
<rect x="15" y="15" width="230" height="61" rx="3" fill="white"/>
</g>
<path d="M58.6641 52V43.2402H53.752V52H52.0723V41.8438H60.3535V52H58.6641ZM66.9551 52.1758C65.5358 52.1758 64.3965 51.7038 63.5371 50.7598C62.6777 49.8092 62.248 48.5299 62.248 46.9219C62.248 45.3138 62.6777 44.0378 63.5371 43.0938C64.3965 42.1432 65.5358 41.668 66.9551 41.668C68.3678 41.668 69.5039 42.1432 70.3633 43.0938C71.2227 44.0378 71.6523 45.3138 71.6523 46.9219C71.6523 48.5234 71.2227 49.7995 70.3633 50.75C69.5039 51.7005 68.3678 52.1758 66.9551 52.1758ZM64.7773 49.6855C65.3177 50.3496 66.0436 50.6816 66.9551 50.6816C67.8665 50.6816 68.5892 50.3529 69.123 49.6953C69.6569 49.0312 69.9238 48.1068 69.9238 46.9219C69.9238 45.737 69.6569 44.8158 69.123 44.1582C68.5892 43.4941 67.8665 43.1621 66.9551 43.1621C66.0436 43.1621 65.3177 43.4941 64.7773 44.1582C64.2435 44.8223 63.9766 45.7435 63.9766 46.9219C63.9766 48.1003 64.2435 49.0215 64.7773 49.6855ZM81.9453 44.9688H80.2656C80.1094 44.4414 79.8132 44.0085 79.377 43.6699C78.9408 43.3314 78.3841 43.1621 77.707 43.1621C76.8216 43.1621 76.112 43.5072 75.5781 44.1973C75.0443 44.8809 74.7773 45.7891 74.7773 46.9219C74.7773 48.0742 75.0443 48.9889 75.5781 49.666C76.1185 50.3431 76.8346 50.6816 77.7266 50.6816C78.3906 50.6816 78.9408 50.5254 79.377 50.2129C79.8197 49.9004 80.1224 49.4609 80.2852 48.8945H81.9648C81.7956 49.8711 81.3268 50.6621 80.5586 51.2676C79.7904 51.873 78.8431 52.1758 77.7168 52.1758C76.2975 52.1758 75.1647 51.7038 74.3184 50.7598C73.472 49.8092 73.0488 48.5299 73.0488 46.9219C73.0488 45.3398 73.472 44.0703 74.3184 43.1133C75.1647 42.1497 76.291 41.668 77.6973 41.668C78.8626 41.668 79.8197 41.987 80.5684 42.625C81.3236 43.263 81.7826 44.0443 81.9453 44.9688ZM85.4121 52H83.7324V41.8438H85.793L89.4062 49.7539H89.4844L93.1172 41.8438H95.0996V52H93.4102V44.793H93.3418L90.0605 51.707H88.7617L85.4805 44.793H85.4121V52ZM101.701 52.1758C100.282 52.1758 99.1426 51.7038 98.2832 50.7598C97.4238 49.8092 96.9941 48.5299 96.9941 46.9219C96.9941 45.3138 97.4238 44.0378 98.2832 43.0938C99.1426 42.1432 100.282 41.668 101.701 41.668C103.114 41.668 104.25 42.1432 105.109 43.0938C105.969 44.0378 106.398 45.3138 106.398 46.9219C106.398 48.5234 105.969 49.7995 105.109 50.75C104.25 51.7005 103.114 52.1758 101.701 52.1758ZM99.5234 49.6855C100.064 50.3496 100.79 50.6816 101.701 50.6816C102.613 50.6816 103.335 50.3529 103.869 49.6953C104.403 49.0312 104.67 48.1068 104.67 46.9219C104.67 45.737 104.403 44.8158 103.869 44.1582C103.335 43.4941 102.613 43.1621 101.701 43.1621C100.79 43.1621 100.064 43.4941 99.5234 44.1582C98.9896 44.8223 98.7227 45.7435 98.7227 46.9219C98.7227 48.1003 98.9896 49.0215 99.5234 49.6855ZM115.324 41.8438V43.2402H112.043V52H110.363V43.2402H107.082V41.8438H115.324ZM121.838 41.668C123.14 41.668 124.188 42.1465 124.982 43.1035C125.783 44.0605 126.184 45.3333 126.184 46.9219C126.184 48.5039 125.786 49.7767 124.992 50.7402C124.198 51.6973 123.16 52.1758 121.877 52.1758C121.161 52.1758 120.52 52.013 119.953 51.6875C119.387 51.362 118.951 50.916 118.645 50.3496H118.605V55.3887H116.906V41.8438H118.518V43.5625H118.557C118.876 42.9766 119.322 42.5143 119.895 42.1758C120.467 41.8372 121.115 41.668 121.838 41.668ZM121.506 50.6816C122.411 50.6816 123.127 50.3431 123.654 49.666C124.182 48.9889 124.445 48.0742 124.445 46.9219C124.445 45.7695 124.182 44.8548 123.654 44.1777C123.127 43.5007 122.411 43.1621 121.506 43.1621C120.633 43.1621 119.93 43.5072 119.396 44.1973C118.863 44.8874 118.596 45.7956 118.596 46.9219C118.596 48.0547 118.863 48.9661 119.396 49.6562C119.93 50.3398 120.633 50.6816 121.506 50.6816ZM132.15 43.1426C131.363 43.1426 130.708 43.416 130.188 43.9629C129.673 44.5033 129.39 45.1999 129.338 46.0527H134.855C134.836 45.1934 134.579 44.4935 134.084 43.9531C133.589 43.4128 132.945 43.1426 132.15 43.1426ZM134.816 49.0898H136.486C136.337 49.9883 135.868 50.7272 135.08 51.3066C134.299 51.8861 133.358 52.1758 132.258 52.1758C130.806 52.1758 129.663 51.707 128.83 50.7695C127.997 49.832 127.58 48.5625 127.58 46.9609C127.58 45.3724 127.997 44.0931 128.83 43.123C129.67 42.153 130.786 41.668 132.18 41.668C133.547 41.668 134.628 42.127 135.422 43.0449C136.216 43.9629 136.613 45.1934 136.613 46.7363V47.3809H129.328V47.4785C129.328 48.4551 129.595 49.2363 130.129 49.8223C130.663 50.4082 131.385 50.7012 132.297 50.7012C132.935 50.7012 133.479 50.5547 133.928 50.2617C134.377 49.9688 134.673 49.5781 134.816 49.0898ZM145.539 41.8438V43.2402H142.258V52H140.578V43.2402H137.297V41.8438H145.539ZM150.686 46.4824H148.791V50.6035H150.686C151.343 50.6035 151.867 50.4147 152.258 50.0371C152.655 49.6595 152.854 49.1615 152.854 48.543C152.854 47.918 152.655 47.4199 152.258 47.0488C151.867 46.6712 151.343 46.4824 150.686 46.4824ZM147.111 52V41.8438H148.791V45.0859H150.715C151.88 45.0859 152.808 45.3984 153.498 46.0234C154.188 46.6484 154.533 47.4883 154.533 48.543C154.533 49.5977 154.188 50.4375 153.498 51.0625C152.808 51.6875 151.88 52 150.715 52H147.111ZM167.922 41.8438V43.2402H164.641V52H162.961V43.2402H159.68V41.8438H167.922ZM173.518 52.1758C172.098 52.1758 170.959 51.7038 170.1 50.7598C169.24 49.8092 168.811 48.5299 168.811 46.9219C168.811 45.3138 169.24 44.0378 170.1 43.0938C170.959 42.1432 172.098 41.668 173.518 41.668C174.93 41.668 176.066 42.1432 176.926 43.0938C177.785 44.0378 178.215 45.3138 178.215 46.9219C178.215 48.5234 177.785 49.7995 176.926 50.75C176.066 51.7005 174.93 52.1758 173.518 52.1758ZM171.34 49.6855C171.88 50.3496 172.606 50.6816 173.518 50.6816C174.429 50.6816 175.152 50.3529 175.686 49.6953C176.219 49.0312 176.486 48.1068 176.486 46.9219C176.486 45.737 176.219 44.8158 175.686 44.1582C175.152 43.4941 174.429 43.1621 173.518 43.1621C172.606 43.1621 171.88 43.4941 171.34 44.1582C170.806 44.8223 170.539 45.7435 170.539 46.9219C170.539 48.1003 170.806 49.0215 171.34 49.6855ZM184.211 43.2207H181.779V46.0625H183.957C185.22 46.0625 185.852 45.5807 185.852 44.6172C185.852 44.168 185.712 43.8229 185.432 43.582C185.152 43.3411 184.745 43.2207 184.211 43.2207ZM184.094 47.4297H181.779V50.623H184.396C185.008 50.623 185.477 50.4896 185.803 50.2227C186.128 49.9492 186.291 49.5553 186.291 49.041C186.291 47.9668 185.559 47.4297 184.094 47.4297ZM180.1 52V41.8438H184.445C185.396 41.8438 186.145 42.0749 186.691 42.5371C187.238 42.9993 187.512 43.6341 187.512 44.4414C187.512 44.9557 187.349 45.4245 187.023 45.8477C186.704 46.2708 186.311 46.5312 185.842 46.6289V46.707C186.48 46.7982 186.991 47.0586 187.375 47.4883C187.766 47.918 187.961 48.4486 187.961 49.0801C187.961 49.9785 187.648 50.6914 187.023 51.2188C186.405 51.7396 185.555 52 184.475 52H180.1ZM193.264 50.7305C194.064 50.7305 194.735 50.4831 195.275 49.9883C195.822 49.487 196.096 48.8717 196.096 48.1426V47.3125L193.381 47.4785C192.697 47.5241 192.167 47.6901 191.789 47.9766C191.418 48.263 191.232 48.6471 191.232 49.1289C191.232 49.6107 191.418 49.998 191.789 50.291C192.16 50.584 192.652 50.7305 193.264 50.7305ZM192.883 52.1758C191.874 52.1758 191.057 51.8958 190.432 51.3359C189.813 50.776 189.504 50.0404 189.504 49.1289C189.504 48.2565 189.823 47.5599 190.461 47.0391C191.105 46.5182 192.014 46.2253 193.186 46.1602L196.096 45.9941V45.1445C196.096 44.526 195.9 44.041 195.51 43.6895C195.119 43.3379 194.572 43.1621 193.869 43.1621C193.225 43.1621 192.701 43.3053 192.297 43.5918C191.893 43.8717 191.636 44.2656 191.525 44.7734H189.885C189.943 43.8685 190.334 43.1263 191.057 42.5469C191.786 41.9609 192.736 41.668 193.908 41.668C195.1 41.668 196.044 41.9674 196.74 42.5664C197.443 43.1654 197.795 43.9694 197.795 44.9785V52H196.184V50.252H196.145C195.839 50.8314 195.389 51.2969 194.797 51.6484C194.204 52 193.566 52.1758 192.883 52.1758ZM205.08 41.668C206.382 41.668 207.43 42.1465 208.225 43.1035C209.025 44.0605 209.426 45.3333 209.426 46.9219C209.426 48.5039 209.029 49.7767 208.234 50.7402C207.44 51.6973 206.402 52.1758 205.119 52.1758C204.403 52.1758 203.762 52.013 203.195 51.6875C202.629 51.362 202.193 50.916 201.887 50.3496H201.848V55.3887H200.148V41.8438H201.76V43.5625H201.799C202.118 42.9766 202.564 42.5143 203.137 42.1758C203.71 41.8372 204.357 41.668 205.08 41.668ZM204.748 50.6816C205.653 50.6816 206.369 50.3431 206.896 49.666C207.424 48.9889 207.688 48.0742 207.688 46.9219C207.688 45.7695 207.424 44.8548 206.896 44.1777C206.369 43.5007 205.653 43.1621 204.748 43.1621C203.876 43.1621 203.173 43.5072 202.639 44.1973C202.105 44.8874 201.838 45.7956 201.838 46.9219C201.838 48.0547 202.105 48.9661 202.639 49.6562C203.173 50.3398 203.876 50.6816 204.748 50.6816Z" fill="#2F3035"/>
<defs>
<filter id="filter0_d" x="0" y="0" width="260" height="91" filterUnits="userSpaceOnUse" color-interpolation-filters="sRGB">
<feFlood flood-opacity="0" result="BackgroundImageFix"/>
<feColorMatrix in="SourceAlpha" type="matrix" values="0 0 0 0 0 0 0 0 0 0 0 0 0 0 0 0 0 0 127 0"/>
<feOffset/>
<feGaussianBlur stdDeviation="7.5"/>
<feColorMatrix type="matrix" values="0 0 0 0 0 0 0 0 0 0 0 0 0 0 0 0 0 0 0.2 0"/>
<feBlend mode="normal" in2="BackgroundImageFix" result="effect1_dropShadow"/>
<feBlend mode="normal" in="SourceGraphic" in2="effect1_dropShadow" result="shape"/>
</filter>
</defs>
</svg>
