<svg width="140" height="35" viewBox="0 0 140 35" fill="none" xmlns="http://www.w3.org/2000/svg">
<rect width="140" height="35" rx="3" fill="#1C62CD"/>
<path d="M43.3516 17.2202L47.9409 22H46.373L42.1455 17.5503H42.0947V22H40.9521V12.8403H42.0947V17.0615H42.1455L46.0811 12.8403H47.5156L43.3516 17.2202ZM51.183 22.0635C50.9545 22.0635 50.7853 22.036 50.6752 21.981V20.9526C50.8107 20.9865 50.9799 21.0034 51.183 21.0034C51.5258 21.0034 51.8157 20.9272 52.0527 20.7749C52.2897 20.6226 52.4991 20.3792 52.6811 20.0449L49.5517 12.8403H50.7704L53.227 18.7754H53.3286L55.728 12.8403H56.915L54.1093 19.3784C53.6734 20.394 53.2439 21.0965 52.8207 21.4858C52.4018 21.8709 51.8559 22.0635 51.183 22.0635ZM66.765 22H65.6351V13.8813H60.7347V22H59.5858V12.8403H66.765V22ZM76.4183 22V14.7129H76.3167L71.3655 22H70.2357V12.8403H71.3655V20.1528H71.4671L76.4183 12.8403H77.5482V22H76.4183ZM84.4719 22H83.3294V13.8687H80.4412V12.8403H87.3601V13.8687H84.4719V22ZM90.2531 22V12.8403H91.3957V16.2363H93.6364C94.4997 16.2363 95.2064 16.5072 95.7565 17.0488C96.3067 17.5863 96.5817 18.2782 96.5817 19.1245C96.5817 19.9709 96.3088 20.6628 95.7629 21.2002C95.217 21.7334 94.5124 22 93.6491 22H90.2531ZM91.3957 20.9717H93.3508C94.0067 20.9717 94.5124 20.8109 94.8679 20.4893C95.2276 20.1676 95.4074 19.7127 95.4074 19.1245C95.4074 18.5321 95.2276 18.075 94.8679 17.7534C94.5124 17.4276 94.0067 17.2646 93.3508 17.2646H91.3957V20.9717Z" fill="white"/>
</svg>
